<?xml version="1.0" encoding="utf-8"?>
<!-- Generator: Adobe Illustrator 18.0.0, SVG Export Plug-In . SVG Version: 6.00 Build 0)  -->
<!DOCTYPE svg PUBLIC "-//W3C//DTD SVG 1.1//EN" "http://www.w3.org/Graphics/SVG/1.1/DTD/svg11.dtd">
<svg version="1.1" id="Layer_1" xmlns="http://www.w3.org/2000/svg" xmlns:xlink="http://www.w3.org/1999/xlink" x="0px" y="0px"
	 viewBox="0 0 612 792" enable-background="new 0 0 612 792" xml:space="preserve">
<g>
	<path fill="#EFE91C" stroke="#B86228" stroke-miterlimit="10" d="M439.7,343.1c1.4-33.2-8.2-59.8-21.3-81.1
		c-13.1-21.3-36.7-42.4-62.7-39.9c-15.6,1.4-22.3,7.4-25.8,15.6c-3.5,8.4-4.3,27.2-4.3,35.2v199.3c37.7-5.1,72.7-26.8,94.6-61.4
		C432.4,391.4,438.7,365.8,439.7,343.1"/>
	<path fill="#EFE91C" stroke="#B86228" stroke-miterlimit="10" d="M306,96.9c-169,0-306,135-306,301.3C0,552.8,117.8,679.8,270,697
		c7.6,0.4,11.9-0.4,15.6-3.3c2.9-2.5,4.1-6.6,4.1-10l0.2-179.6c-82.3-8.6-148.3-76.6-147.3-160c1-79.7,55.9-143.6,128.4-158.5
		c1.8-0.4,3.3-0.8,4.3,0.2c1.2,1,0.4,3.9,0.4,3.9l-5.5,26.6c0,0-0.4,1.6-0.8,2.3c-0.4,0.4-1.2,0.8-1.8,1
		c-31.5,9.8-60,31.1-73.9,56.9c-11.5,21.5-19,37.7-19,67c0,63.1,49.6,121,115.1,128.8V273c0-20.9,1-45.1,13.3-61.9
		c9.6-12.9,26.2-20.9,52.4-20.9c37.9,0,83.2,27.7,105.9,87.7c7,18,11.1,41.2,10.9,66C471.9,427,407,495,325,504l-0.2,179.6
		c0,4.7,1.4,8.2,4.3,10.4c3.3,2.7,6.1,3.7,15.4,2.9c3.5-0.2,10-1.2,12.7-1.6c144.4-24.2,254.4-147.9,254.4-297
		C612,231.8,475,96.9,306,96.9"/>
</g>
</svg>
